<svg xmlns="http://www.w3.org/2000/svg" height="512px" viewBox="0 -41 472.42682 472" width="512px" class=""><g><path d="m449.761719 275.945312c11.433593 4.183594 19.824219 14.082032 22.070312 26.050782 2.25 11.96875-1.972656 24.238281-11.113281 32.289062l-.179688.148438c-6.546874-8.300782-16.539062-13.140625-27.109374-13.128906h-53.570313v-.019532l22.929687-62.5625zm0 0" fill="#00acea" data-original="#00ACEA" class="" style="fill: #459c50;" data-old_color="#00acea"/><path d="m460.539062 334.433594c8.203126 10.390625 9.746094 24.550781 3.976563 36.464844-5.773437 11.914062-17.847656 19.476562-31.085937 19.476562h-50.03125v-69.070312h50.03125c10.570312-.011719 20.5625 4.828124 27.109374 13.128906zm0 0" fill="#23ccf9" data-original="#23CCF9" class="active-path" style="fill: #459c50;" data-old_color="#23ccf9"/><g fill="#00efd1"><path d="m402.789062 258.722656-22.929687 62.5625v.019532h-7.039063l-40.78125-14.941407c-11.605468-4.230469-20.070312-14.34375-22.191406-26.511719-2.125-12.171874 2.414063-24.550781 11.902344-32.464843 9.484375-7.914063 22.476562-10.15625 34.070312-5.882813zm0 0" data-original="#00EFD1" class="" style="fill: #459c50;" data-old_color="#00EFD1"/><path d="m372.820312 321.304688h10.578126v69.070312h-50.019532c-19.070312 0-34.535156-15.464844-34.535156-34.535156 0-19.074219 15.464844-34.535156 34.535156-34.535156zm0 0" data-original="#00EFD1" class="" style="fill: #459c50;" data-old_color="#00EFD1"/><path d="m277.140625 178.433594v174.851562c-.0625 20.457032-16.632813 37.027344-37.089844 37.089844h-202.960937c-20.460938-.0625-37.0312502-16.632812-37.089844-37.089844v-174.851562c0-30.398438 18.511719-58.03125 46.050781-69.082032v-34.539062h185.039063v34.539062c13.710937 5.441407 25.414062 14.96875 33.519531 27.292969 8.195313 12.394531 12.550781 26.929688 12.53125 41.789063zm0 0" data-original="#00EFD1" class="" style="fill: #459c50;" data-old_color="#00EFD1"/></g><path d="m231.089844 74.8125h-194.25v-74.597656h203.460937v74.597656zm0 0" fill="#00acea" data-original="#00ACEA" class="" style="fill: #459c50;" data-old_color="#00acea"/><path d="m370.988281 306.992188c-.9375 0-1.871093-.164063-2.75-.488282l-31.953125-11.710937c-4.105468-1.550781-6.195312-6.117188-4.683594-10.238281 1.507813-4.121094 6.058594-6.253907 10.191407-4.785157l31.949219 11.710938c3.644531 1.332031 5.808593 5.089843 5.128906 8.910156-.679688 3.824219-4 6.605469-7.882813 6.601563zm0 0" fill="#fedb41" data-original="#FEDB41" class="" style="fill: #ffffff;" data-old_color="#fedb41"/><path d="m367.410156 378.0625h-34.03125c-4.417968 0-8-3.582031-8-8s3.582032-8 8-8h34.03125c4.417969 0 8 3.582031 8 8s-3.582031 8-8 8zm0 0" fill="#fedb41" data-original="#FEDB41" class="" style="fill: #ffffff;" data-old_color="#fedb41"/><path d="m220.210938 224.292969v46h-57v57h-49v-57h-56v-46h56v-57h49v57zm0 0" fill="#fedb41" data-original="#FEDB41" class="" style="fill: #ffffff;" data-old_color="#fedb41"/></g> </svg>