<?xml version="1.0"?>
<svg xmlns="http://www.w3.org/2000/svg" xmlns:xlink="http://www.w3.org/1999/xlink" xmlns:svgjs="http://svgjs.com/svgjs" version="1.1" width="512" height="512" x="0" y="0" viewBox="0 0 384.23 384.23" style="enable-background:new 0 0 512 512" xml:space="preserve" class=""><g>
<g xmlns="http://www.w3.org/2000/svg">
	<g>
		<path d="M369.23,322.594h-70.348l65.885-65.885c6.279-6.279,6.279-16.461,0-22.74L167.147,36.349c-6.28-6.28-16.461-6.28-22.741,0    L19.463,161.291c-6.28,6.28-6.28,16.462,0,22.741l138.56,138.562H15c-8.284,0-15,6.716-15,14.999c0,8.284,6.716,15,15,15h354.23    c8.283,0,15-6.716,15-15C384.23,329.31,377.515,322.594,369.23,322.594z M304.209,218.891l-100.578-21.407L182.224,96.905    L304.209,218.891z M53.574,172.661l91.592-91.592l28.464,133.732c0.677,3.18,2.258,6.013,4.465,8.219    c2.207,2.207,5.039,3.788,8.219,4.465l133.73,28.464l-66.643,66.646h-49.896L53.574,172.661z" fill="#a5a5a5" data-original="#000000" style="" class=""/>
	</g>
</g>
<g xmlns="http://www.w3.org/2000/svg">
</g>
<g xmlns="http://www.w3.org/2000/svg">
</g>
<g xmlns="http://www.w3.org/2000/svg">
</g>
<g xmlns="http://www.w3.org/2000/svg">
</g>
<g xmlns="http://www.w3.org/2000/svg">
</g>
<g xmlns="http://www.w3.org/2000/svg">
</g>
<g xmlns="http://www.w3.org/2000/svg">
</g>
<g xmlns="http://www.w3.org/2000/svg">
</g>
<g xmlns="http://www.w3.org/2000/svg">
</g>
<g xmlns="http://www.w3.org/2000/svg">
</g>
<g xmlns="http://www.w3.org/2000/svg">
</g>
<g xmlns="http://www.w3.org/2000/svg">
</g>
<g xmlns="http://www.w3.org/2000/svg">
</g>
<g xmlns="http://www.w3.org/2000/svg">
</g>
<g xmlns="http://www.w3.org/2000/svg">
</g>
</g></svg>
