<?xml version="1.0"?>
<svg xmlns="http://www.w3.org/2000/svg" xmlns:xlink="http://www.w3.org/1999/xlink" xmlns:svgjs="http://svgjs.com/svgjs" version="1.1" width="512" height="512" x="0" y="0" viewBox="0 0 512 512" style="enable-background:new 0 0 512 512" xml:space="preserve"><g><g xmlns="http://www.w3.org/2000/svg"><path d="m203.59 158.59c-6.149 1.151-10.973 6.357-11.899 12.496-.933 6.186 2.244 12.499 7.769 15.433 5.544 2.945 12.468 2.092 17.135-2.11 4.661-4.196 6.162-11.076 3.775-16.85-2.687-6.5-9.855-10.406-16.78-8.969z" fill="#a5a5a5" data-original="#000000" style=""/><path d="m413.046 248.018v-233.018c0-8.284-6.716-15-15-15h-383.046c-8.284 0-15 6.716-15 15v482c0 8.284 6.716 15 15 15h393.455c4.165 0 8.253-1.801 11.064-4.871.927-1.013 22.952-25.142 45.318-55.74 31.736-43.416 47.163-76.105 47.163-99.934 0-55.556-43.982-101.025-98.954-103.437zm-128.486-84.307c-4.745-38.857-37.919-69.059-78.037-69.059s-73.292 30.202-78.037 69.059h-51.619l-41.505-133.711h342.322l-41.504 133.711zm-29.395 9.583c0 26.821-21.82 48.643-48.642 48.643s-48.642-21.821-48.642-48.643c0-26.821 21.821-48.642 48.642-48.642s48.642 21.821 48.642 48.642zm-225.165-59.373 21.492 69.237c1.948 6.275 7.754 10.553 14.326 10.553h64.768c9.015 33.494 39.636 58.226 75.938 58.226s66.923-24.731 75.938-58.226h64.768c6.571 0 12.377-4.277 14.326-10.554l21.491-69.236v137.148c-44.85 11.357-78.136 52.055-78.136 100.386 0 23.829 15.427 56.518 47.163 99.934 8.323 11.387 16.597 21.874 23.756 30.611h-345.83zm378.452 360.451c-32.152-37.432-73.542-94.944-73.542-122.917 0-40.553 32.992-73.544 73.545-73.544s73.545 32.991 73.545 73.544c0 27.937-41.395 85.466-73.548 122.917z" fill="#a5a5a5" data-original="#000000" style=""/><path d="m408.455 307.911c-24.011 0-43.544 19.534-43.544 43.545 0 24.01 19.534 43.544 43.544 43.544 24.011 0 43.545-19.534 43.545-43.544 0-24.011-19.534-43.545-43.545-43.545zm0 57.089c-7.468 0-13.544-6.076-13.544-13.544 0-7.469 6.076-13.545 13.544-13.545 7.469 0 13.545 6.076 13.545 13.545 0 7.468-6.076 13.544-13.545 13.544z" fill="#a5a5a5" data-original="#000000" style=""/></g></g></svg>
