<?xml version="1.0"?>
<svg xmlns="http://www.w3.org/2000/svg" xmlns:xlink="http://www.w3.org/1999/xlink" xmlns:svgjs="http://svgjs.com/svgjs" version="1.1" width="512" height="512" x="0" y="0" viewBox="0 0 512 512" style="enable-background:new 0 0 512 512" xml:space="preserve" class=""><g>
<path xmlns="http://www.w3.org/2000/svg" style="" d="M436.775,485.289C421.05,502.263,398.758,512,375.615,512H136.385  c-23.142,0-45.435-9.737-61.16-26.711C59.5,468.305,51.493,445.332,53.262,422.26l22.872-288.194  c1.42-18.524,17.114-33.069,35.738-33.069h288.254c18.624,0,34.319,14.545,35.748,33.109l22.862,288.114  C460.507,445.332,452.5,468.305,436.775,485.289z" fill="#a5a5a5" data-original="#b4deb2"/>
<path xmlns="http://www.w3.org/2000/svg" style="" d="M436.775,485.289C421.05,502.263,398.758,512,375.615,512h-119.62V100.996h144.132  c18.624,0,34.319,14.545,35.748,33.109l22.862,288.114C460.507,445.332,452.5,468.305,436.775,485.289z" fill="#a5a5a5" data-original="#86c983" class=""/>
<path xmlns="http://www.w3.org/2000/svg" style="" d="M354.972,98.967v68.957c0,8.287-6.718,14.995-14.995,14.995c-8.287,0-14.995-6.708-14.995-14.995  V98.967c0-38.027-30.95-68.977-68.977-68.977c-38.037,0-68.987,30.95-68.987,68.977v68.957c0,8.287-6.708,14.995-14.995,14.995  c-8.277,0-14.995-6.708-14.995-14.995V98.967C157.028,44.395,201.433,0,256.005,0S354.972,44.395,354.972,98.967z" fill="#a5a5a5" data-original="#b5b51f" class=""/>
<path xmlns="http://www.w3.org/2000/svg" style="" d="M354.972,98.967v68.957c0,8.287-6.718,14.995-14.995,14.995c-8.287,0-14.995-6.708-14.995-14.995  V98.967c0-38.027-30.95-68.977-68.977-68.977V0C310.577,0,354.972,44.395,354.972,98.967z" fill="#a5a5a5" data-original="#98981a" class=""/>
<path xmlns="http://www.w3.org/2000/svg" style="" d="M322.678,359.857c5.858,5.858,5.858,15.345,0,21.203c-2.929,2.929-6.768,4.389-10.606,4.389  s-7.667-1.46-10.596-4.389L256,335.595l-0.01-0.01l-45.475,45.475c-2.929,2.929-6.758,4.389-10.596,4.389s-7.677-1.46-10.606-4.389  c-5.858-5.858-5.858-15.345,0-21.203l45.475-45.475l-45.475-45.475c-5.858-5.858-5.858-15.355,0-21.213  c5.858-5.858,15.355-5.858,21.203,0l45.475,45.475l0.01-0.01l45.475-45.465c5.848-5.858,15.345-5.858,21.203,0  c5.858,5.858,5.858,15.355,0,21.213l-45.475,45.475L322.678,359.857z" fill="#ffffff" data-original="#ff7c48" class=""/>
<path xmlns="http://www.w3.org/2000/svg" style="" d="M322.678,359.857c5.858,5.858,5.858,15.345,0,21.203c-2.929,2.929-6.768,4.389-10.606,4.389  s-7.667-1.46-10.596-4.389L256,335.595v-42.436l45.475-45.465c5.848-5.858,15.345-5.858,21.203,0c5.858,5.858,5.858,15.355,0,21.213  l-45.475,45.475L322.678,359.857z" fill="#ffffff" data-original="#ff4c04" class=""/>
<g xmlns="http://www.w3.org/2000/svg">
</g>
<g xmlns="http://www.w3.org/2000/svg">
</g>
<g xmlns="http://www.w3.org/2000/svg">
</g>
<g xmlns="http://www.w3.org/2000/svg">
</g>
<g xmlns="http://www.w3.org/2000/svg">
</g>
<g xmlns="http://www.w3.org/2000/svg">
</g>
<g xmlns="http://www.w3.org/2000/svg">
</g>
<g xmlns="http://www.w3.org/2000/svg">
</g>
<g xmlns="http://www.w3.org/2000/svg">
</g>
<g xmlns="http://www.w3.org/2000/svg">
</g>
<g xmlns="http://www.w3.org/2000/svg">
</g>
<g xmlns="http://www.w3.org/2000/svg">
</g>
<g xmlns="http://www.w3.org/2000/svg">
</g>
<g xmlns="http://www.w3.org/2000/svg">
</g>
<g xmlns="http://www.w3.org/2000/svg">
</g>
</g></svg>
