<?xml version="1.0"?>
<svg xmlns="http://www.w3.org/2000/svg" xmlns:xlink="http://www.w3.org/1999/xlink" xmlns:svgjs="http://svgjs.com/svgjs" version="1.1" width="512" height="512" x="0" y="0" viewBox="0 0 512 512" style="enable-background:new 0 0 512 512" xml:space="preserve"><g>
<g xmlns="http://www.w3.org/2000/svg">
	<g>
		<path d="M458.737,422.218l-22.865-288.115C434.448,115.54,418.749,101,400.133,101h-45.162v-2.03    c0-54.573-44.397-98.97-98.969-98.97c-54.572,0-98.969,44.397-98.969,98.969v2.03h-45.162c-18.617,0-34.316,14.54-35.736,33.064    L53.262,422.257c-1.77,23.075,6.235,46.048,21.961,63.026C90.949,502.261,113.242,512,136.385,512h239.232    c23.142,0,45.436-9.738,61.162-26.717C452.504,468.304,460.509,445.332,458.737,422.218z M187.022,98.969    c0-38.035,30.945-68.979,68.979-68.979s68.979,30.945,68.979,68.979v2.03H187.022V98.969z M414.777,464.905    c-10.218,11.03-24.124,17.105-39.16,17.105H136.386c-15.036,0-28.942-6.075-39.16-17.105    c-10.217-11.031-15.211-25.363-14.063-40.315l22.871-288.195c0.232-3.032,2.796-5.406,5.837-5.406h45.162v36.935    c0,8.281,6.714,14.995,14.995,14.995s14.995-6.714,14.995-14.995v-36.935h137.959v36.935c0,8.281,6.714,14.995,14.995,14.995    s14.995-6.714,14.995-14.995v-36.935h45.162c3.041,0,5.604,2.374,5.84,5.446l22.865,288.115    C429.988,439.542,424.993,453.873,414.777,464.905z" fill="#a5a5a5" data-original="#000000" style=""/>
	</g>
</g>
<g xmlns="http://www.w3.org/2000/svg">
	<g>
		<path d="M279.168,311.902l45.477-45.477c5.857-5.856,5.857-15.35,0.002-21.206c-5.855-5.856-15.35-5.856-21.206,0l-45.477,45.477    l-45.477-45.477c-5.855-5.856-15.35-5.856-21.206,0c-5.856,5.856-5.856,15.35,0,21.206l45.477,45.477l-45.477,45.477    c-5.856,5.856-5.856,15.35,0,21.206c2.928,2.928,6.766,4.393,10.602,4.393s7.675-1.464,10.602-4.393l45.477-45.477l45.477,45.477    c2.928,2.928,6.766,4.393,10.602,4.393c3.837,0,7.675-1.464,10.602-4.393c5.856-5.856,5.856-15.35,0-21.206L279.168,311.902z" fill="#a5a5a5" data-original="#000000" style=""/>
	</g>
</g>
<g xmlns="http://www.w3.org/2000/svg">
</g>
<g xmlns="http://www.w3.org/2000/svg">
</g>
<g xmlns="http://www.w3.org/2000/svg">
</g>
<g xmlns="http://www.w3.org/2000/svg">
</g>
<g xmlns="http://www.w3.org/2000/svg">
</g>
<g xmlns="http://www.w3.org/2000/svg">
</g>
<g xmlns="http://www.w3.org/2000/svg">
</g>
<g xmlns="http://www.w3.org/2000/svg">
</g>
<g xmlns="http://www.w3.org/2000/svg">
</g>
<g xmlns="http://www.w3.org/2000/svg">
</g>
<g xmlns="http://www.w3.org/2000/svg">
</g>
<g xmlns="http://www.w3.org/2000/svg">
</g>
<g xmlns="http://www.w3.org/2000/svg">
</g>
<g xmlns="http://www.w3.org/2000/svg">
</g>
<g xmlns="http://www.w3.org/2000/svg">
</g>
</g></svg>
