<?xml version="1.0"?>
<svg xmlns="http://www.w3.org/2000/svg" xmlns:xlink="http://www.w3.org/1999/xlink" xmlns:svgjs="http://svgjs.com/svgjs" version="1.1" width="512" height="512" x="0" y="0" viewBox="0 0 512 512" style="enable-background:new 0 0 512 512" xml:space="preserve" class=""><g>
<g xmlns="http://www.w3.org/2000/svg">
	<g>
		<path d="M458.738,422.22l-22.862-288.114c-1.43-18.564-17.124-33.109-35.748-33.109h-45.155v66.928    c0,8.287-6.718,14.995-14.995,14.995c-8.287,0-14.995-6.708-14.995-14.995v-66.928H187.018v66.928    c0,8.287-6.708,14.995-14.995,14.995c-8.277,0-14.995-6.708-14.995-14.995v-66.928h-45.155c-18.624,0-34.319,14.545-35.738,33.069    L53.262,422.26c-1.769,23.072,6.238,46.045,21.963,63.029C90.95,502.263,113.242,512,136.385,512h239.231    c23.142,0,45.435-9.737,61.16-26.711C452.5,468.305,460.507,445.332,458.738,422.22z M324.642,357.381    c5.858,5.858,5.858,15.345,0,21.203c-2.929,2.929-6.758,4.399-10.596,4.399c-3.839,0-7.677-1.47-10.606-4.399l-45.475-45.475    l-45.475,45.475c-2.929,2.929-6.768,4.399-10.606,4.399s-7.677-1.47-10.607-4.399c-5.848-5.858-5.848-15.345,0-21.203    l45.475-45.475l-45.475-45.475c-5.848-5.858-5.848-15.355,0-21.213c5.858-5.858,15.355-5.858,21.213,0l45.475,45.475    l45.475-45.475c5.858-5.858,15.355-5.858,21.203,0c5.858,5.858,5.858,15.355,0,21.213l-45.475,45.475L324.642,357.381z" fill="#a5a5a5" data-original="#000000" style=""/>
	</g>
</g>
<g xmlns="http://www.w3.org/2000/svg">
	<g>
		<path d="M256.005,0c-54.582,0-98.977,44.395-98.977,98.967v2.029h29.99v-2.029h0c0-38.027,30.95-68.977,68.987-68.977    c38.027,0,68.977,30.95,68.977,68.977v2.029h29.99v-2.029C354.972,44.395,310.577,0,256.005,0z" fill="#a5a5a5" data-original="#000000" style=""/>
	</g>
</g>
<g xmlns="http://www.w3.org/2000/svg">
</g>
<g xmlns="http://www.w3.org/2000/svg">
</g>
<g xmlns="http://www.w3.org/2000/svg">
</g>
<g xmlns="http://www.w3.org/2000/svg">
</g>
<g xmlns="http://www.w3.org/2000/svg">
</g>
<g xmlns="http://www.w3.org/2000/svg">
</g>
<g xmlns="http://www.w3.org/2000/svg">
</g>
<g xmlns="http://www.w3.org/2000/svg">
</g>
<g xmlns="http://www.w3.org/2000/svg">
</g>
<g xmlns="http://www.w3.org/2000/svg">
</g>
<g xmlns="http://www.w3.org/2000/svg">
</g>
<g xmlns="http://www.w3.org/2000/svg">
</g>
<g xmlns="http://www.w3.org/2000/svg">
</g>
<g xmlns="http://www.w3.org/2000/svg">
</g>
<g xmlns="http://www.w3.org/2000/svg">
</g>
</g></svg>
