<?xml version="1.0"?>
<svg xmlns="http://www.w3.org/2000/svg" id="Capa_1" enable-background="new 0 0 511.371 511.371" height="512px" viewBox="0 0 511.371 511.371" width="512px"><g><g><path d="m443.501 315.4h-82.64l41.296 71.525c22.036-17.172 37.364-42.563 41.344-71.525z" data-original="#000000" class="active-path" data-old_color="#000000" fill="#EB7D16"/><path d="m376.197 401.962-41.317-71.562-41.316 71.562c12.758 5.209 26.706 8.089 41.316 8.089 14.61-.001 28.558-2.88 41.317-8.089z" data-original="#000000" class="active-path" data-old_color="#000000" fill="#EB7D16"/><path d="m127.761 300.4v-15h225.837c-5.748-68.213-50.318-125.542-111.476-149.759 7.069-2.976 13.796-7.087 19.447-12.739 26.075-26.075 19.402-75.024 19.402-75.024s-48.949-6.673-75.024 19.402c-1.863 1.863-3.553 3.845-5.095 5.915v-39.343h-30v89.551c-94.772 3.314-170.852 81.432-170.852 176.997 0 97.664 79.456 177.119 177.12 177.119 14.497 0 28.703-1.721 42.496-5.119-55.358-37.218-91.855-100.425-91.855-172z" data-original="#000000" class="active-path" data-old_color="#000000" fill="#EB7D16"/><path d="m473.724 315.4c-7.508 69.976-66.908 124.65-138.844 124.65s-131.336-54.674-138.843-124.65h-37.647c7.636 90.675 83.875 162.119 176.49 162.119s168.855-71.444 176.491-162.119z" data-original="#000000" class="active-path" data-old_color="#000000" fill="#EB7D16"/><path d="m267.604 386.925 41.295-71.525h-82.639c3.98 28.962 19.308 54.353 41.344 71.525z" data-original="#000000" class="active-path" data-old_color="#000000" fill="#EB7D16"/></g></g> </svg>
