<svg xmlns="http://www.w3.org/2000/svg" xmlns:xlink="http://www.w3.org/1999/xlink" version="1.1" id="Capa_1" x="0px" y="0px" viewBox="0 0 512 512" style="enable-background:new 0 0 512 512;" xml:space="preserve" width="512px" height="512px" class=""><g><path style="fill: #b8caa6;" d="M472.378,128.779c-27.13,27.13-76.082,22.166-76.082,22.166s-4.965-48.952,22.166-76.082  s76.082-22.166,76.082-22.166S499.508,101.648,472.378,128.779z" data-original="#93D632" class="active-path" data-old_color="#93D632"/><path style="fill: #a4b988;" d="M472.378,128.779c-27.13,27.13-76.082,22.166-76.082,22.166l98.248-98.248  C494.543,52.696,499.508,101.648,472.378,128.779z" data-original="#86C42B" class="" data-old_color="#86C42B"/><rect x="380.99" y="52.139" style="fill: #c7b8a8;" width="30" height="127.72" data-original="#FF9500" class="" data-old_color="#FF9500"/><rect x="395.94" y="52.139" style="fill: #bda894;" width="15.05" height="127.72" data-original="#FE8205" class="" data-old_color="#FE8205"/><path style="fill: #efcb04;" d="M502.812,297.911l-48.903-115.792c-9.931-23.515-32.976-38.798-58.502-38.798l0,0  c-25.526,0-48.571,15.283-58.502,38.798l-48.902,115.792c-17.803,42.154-9.301,90.825,21.739,124.447l0,0  c23.082,25.003,54.374,37.504,85.666,37.504s62.583-12.501,85.666-37.504l0,0C512.113,388.736,520.615,340.065,502.812,297.911z" data-original="#FFBC36" class="" data-old_color="#FFBC36"/><path style="fill: #efcb04;" d="M502.812,297.911l-48.903-115.792c-9.931-23.515-32.976-38.798-58.502-38.798l0,0  c0,72.809,0,224.034,0,316.541c31.292,0,62.583-12.501,85.666-37.504l0,0C512.113,388.736,520.615,340.065,502.812,297.911z" data-original="#FFA426" class="" data-old_color="#FFA426"/><path style="fill: #c7dab5;" d="M240.878,170.279c-27.13,27.13-76.082,22.166-76.082,22.166s-4.965-48.952,22.166-76.082  s76.082-22.166,76.082-22.166S268.008,143.148,240.878,170.279z" data-original="#93D632" class="active-path" data-old_color="#93D632"/><path style="fill: #adc390;" d="M240.878,170.279c-27.13,27.13-76.082,22.166-76.082,22.166l98.248-98.248  C263.043,94.196,268.008,143.148,240.878,170.279z" data-original="#86C42B" class="" data-old_color="#86C42B"/><rect x="149.49" y="93.639" style="fill: #d2bfab;" width="30" height="127.72" data-original="#FF9500" class="" data-old_color="#FF9500"/><rect x="164.44" y="93.639" style="fill: #c1ae9b;" width="15.05" height="127.72" data-original="#FE8205" class="" data-old_color="#FE8205"/><path style="fill: #efcb04;" d="M164.49,447.111c0,0,49.993,28.69,94.077,0s100.764-154.645,51.082-225.32  s-145.159-27.99-145.159-27.99s-95.477-42.685-145.159,27.99s6.997,196.63,51.082,225.32S164.49,447.111,164.49,447.111z" data-original="#F92814" class="" data-old_color="#F92814"/><path style="fill: #efcb04;" d="M164.49,447.111c0,0,49.993,28.69,94.077,0s100.764-154.645,51.082-225.32  s-145.159-27.99-145.159-27.99L164.49,447.111L164.49,447.111z" data-original="#DB0404" class="" data-old_color="#DB0404"/></g> </svg>